<?xml version='1.0' encoding='iso-8859-1'?>
<svg version="1.1" xmlns="http://www.w3.org/2000/svg" viewBox="0 0 56.601 56.601" xmlns:xlink="http://www.w3.org/1999/xlink" enable-background="new 0 0 56.601 56.601">
  <g>
    <path d="m13.533,15.355h12.129c0.552,0 1-0.447 1-1 0-0.553-0.448-1-1-1h-12.129c-0.552,0-1,0.447-1,1 0,0.553 0.448,1 1,1z"/>
    <path d="m54.644,47.04c-0.001-0.552-0.448-0.998-1-0.998h-0.002l-4.611,.008c0.353-35.715-12.802-45.756-20.668-46.044-5.534-0.186-9.843,3.666-10.589,9.306h-8.766c-0.297,0-0.58,0.133-0.77,0.361l-6.065,7.312c-0.149,0.18-0.231,0.405-0.231,0.639v37.976c0,0.553 0.448,1 1,1h33.31c0.552,0 1-0.447 1-1v-37.975c0-0.24-0.086-0.473-0.244-0.654l-6.328-7.312c-0.19-0.22-0.466-0.346-0.756-0.346h-10.13c0.712-4.445 4.141-7.467 8.496-7.307 7.145,0.26 19.087,9.85 18.741,44.047l-3.934,.007c-0.266,0-0.52,0.107-0.707,0.294-0.187,0.188-0.292,0.442-0.292,0.708l.014,8.437c0.001,0.552 0.448,0.998 1,0.998h0.001l10.545-.018c0.266,0 0.52-0.107 0.707-0.294 0.187-0.188 0.292-0.442 0.292-0.708l-.013-8.437zm-19.391-29.042v36.604h-31.31v-36.617l5.535-6.673h19.991l5.784,6.686zm8.858,36.496l-.011-6.437 8.545-.014 .011,6.437-8.545,.014z"/>
  </g>
</svg>
